PathFileType	4	(X/Y/Z)	Patient4_TMGait_0pt3_01_left_30.trc.trc
DataRate	CameraRate	NumFrames	NumMarkers	Units	OrigDataRate	OrigDataStartFrame	OrigNumFrames
50.000000000000	50.000000000000	7	33	mm	50.000000000000	18	       141
Frame#	Time	Sacral			L.Shoulder			Chest			R.Shoulder			Neck			R.ASIS			L.ASIS			R.Thigh.Superior			R.Thigh.Lateral			R.Thigh.Inferior			R.Patella			L.Thigh.Superior			L.Thigh.Lateral			L.Thigh.Inferior			L.Patella			L.Shank.Superior			L.Shank.Lateral			L.Shank.Inferior			R.Shank.Superior			R.Shank.Lateral			R.Shank.Inferior			R.Heel			R.Midfoot.Superior			R.Midfoot.Lateral			R.Toe			L.Heel			L.Midfoot.Lateral			L.Midfoot.Superior			L.Toe			L.Elbow			L.Wrist			R.Elbow			R.Wrist			
		X1	Y1	Z1	X2	Y2	Z2	X3	Y3	Z3	X4	Y4	Z4	X5	Y5	Z5	X6	Y6	Z6	X7	Y7	Z7	X8	Y8	Z8	X9	Y9	Z9	X10	Y10	Z10	X11	Y11	Z11	X12	Y12	Z12	X13	Y13	Z13	X14	Y14	Z14	X15	Y15	Z15	X16	Y16	Z16	X17	Y17	Z17	X18	Y18	Z18	X19	Y19	Z19	X20	Y20	Z20	X21	Y21	Z21	X22	Y22	Z22	X23	Y23	Z23	X24	Y24	Z24	X25	Y25	Z25	X26	Y26	Z26	X27	Y27	Z27	X28	Y28	Z28	X29	Y29	Z29	X30	Y30	Z30	X31	Y31	Z31	X32	Y32	Z32	X33	Y33	Z33	

18	57.070000000000	679.885211405826	996.803618009385	585.963082456375	825.268956659803	1421.611023878220	374.176711547107	954.330815932688	1355.569034768048	516.092182009938	903.633680931340	1435.333027763136	699.337443234441	838.817027032034	1486.446514500711	529.028287837332	920.403822218299	931.055757855485	671.085121761655	874.710210959104	958.203132538508	401.077241568633	940.615679049515	723.837944398465	631.731475288205	854.027220623320	613.855668001169	689.030428486544	921.660075042112	561.957743607232	601.953814114002	913.603894793545	468.465135239297	604.082138697768	961.638002385650	778.192700220601	432.497148685139	921.335497038171	649.061454933347	353.120180395298	1021.230694731291	590.709226525963	420.547263293930	1049.015381848882	521.580409357150	413.463676001351	1023.773750632462	448.084634222249	398.338888869731	944.573906737295	329.943584364586	337.537177315604	1016.756244875319	217.932221113791	389.591889779633	865.518206276568	384.484546851477	605.944693123550	775.688301588024	291.855815084181	661.897148639369	797.373820989070	195.622653052140	593.087810606267	638.656488012515	44.907999206686	551.062078630721	807.286799463795	93.803122252330	596.096126092586	716.075718760049	37.347333095020	631.033123826449	924.488218614063	40.433241837600	636.481112688560	911.702275630000	45.280144194946	416.238653662300	988.172470048085	48.177860303724	338.559628281389	1064.477395091701	119.332828665418	364.972772156580	1195.823618520423	81.800886470666	340.181778602569	676.864724664061	1098.934890906387	288.454853822114	643.039418899512	841.760604762985	313.946695138007	1052.980691650094	1133.371165149357	826.626358369309	1301.345466034892	1126.605932805781	760.005838641558	
19	57.090000000000	680.315249797516	998.401823102975	585.735799884372	823.729431208677	1422.572928649185	372.252959892978	954.670121452798	1356.081905653382	512.393722458409	906.590098482987	1436.496735317451	695.996090407893	839.231737859499	1487.191122818212	526.806484922752	921.016699663948	931.424222766852	668.650194721000	873.304865042452	958.843972225072	398.963377864766	937.376242210867	723.309870484813	629.797738501801	849.282895708708	614.705852311095	688.131608026271	915.300632371708	561.657619348638	600.852077836203	905.838711293614	468.805463888545	603.245773853834	958.533456136174	777.047273040110	429.410151202287	915.446063990122	648.291678753882	350.546144323539	1015.191778242376	589.030834324821	417.207727937245	1042.637070046662	521.507218554380	410.852607028527	1019.797124576867	448.471915427148	396.118854170559	945.155170607600	327.256382088778	335.178063178686	1021.094221753132	217.967600851136	388.082542680866	858.275906982109	385.082648274185	605.524523771449	768.773847280507	292.318700377670	661.694114459486	790.863159451906	195.995615006201	593.006808375265	632.522692929182	44.828883701132	551.123963056291	801.263414383823	93.861978973128	596.209113872349	709.969928416939	37.279734169807	631.071121430131	918.399632395326	40.473630136409	636.463940849108	921.323102153764	43.051079568509	414.709912866602	998.576161064118	46.608819864801	337.740157017027	1073.144538469219	119.521989425990	364.312419210605	1205.607624639065	84.276150434312	341.352816122030	669.369739732368	1103.238870156420	288.465888279294	633.778430801203	846.181015726875	315.647108664286	1064.814160272297	1140.238131090730	821.425459715459	1311.478808955086	1147.404823889510	749.797754799977	
20	57.110000000000	680.882901564602	999.305754796022	585.123877128770	822.592144732789	1422.877544546698	369.952056046231	955.119713045516	1356.039709326595	508.593443286415	909.230048017409	1437.081501055984	692.407900350459	839.726390182877	1487.376421372036	524.232547697091	921.816528543315	931.356983525866	666.182045812365	872.211587033796	958.813007536715	396.785240451260	934.730226323579	722.514620161399	627.809542222382	845.268635343018	615.168331882975	687.073220646942	909.787445122328	561.081103397818	599.654386305768	898.953247515908	468.769723919382	602.285115575779	955.852085822652	775.223100096623	426.070601663546	909.652660420718	646.809677291967	348.035237002085	1009.489325957347	586.797616336893	413.711659474984	1036.346098422318	520.536683327214	408.111433805062	1015.478205925971	447.956728321589	393.763734872354	944.323700030006	324.393616378837	333.172018187827	1023.348887353631	217.445945700725	386.627113663586	851.738819868573	385.310820844416	604.970824540238	762.357077341923	292.598718630682	661.394882021018	784.616945758281	196.159814840773	592.859922995065	626.394111212864	44.711740793349	551.155292459547	795.256447539078	93.924697440945	596.309985636107	703.863303062239	37.194314367402	631.096957863471	912.313228737353	40.520743133315	636.443063892268	927.769937077133	41.275192179144	413.745600841372	1005.336579401907	45.159160553774	337.048337128347	1078.825544126642	119.072430908047	363.526400077949	1211.891632031416	85.164430658766	341.520457881776	663.472270943430	1106.323615926904	288.256482094805	626.541129384934	849.276823554504	317.196871195738	1075.832939114197	1146.470885073782	815.834810451203	1320.227104913965	1166.491613047376	739.907291137363	
21	57.130000000000	681.593411902763	999.537294485457	584.146729233665	821.809917544884	1422.543398636868	367.263835385006	955.669203169981	1355.482204994584	504.667704644373	911.569789691193	1437.113958143529	688.579863073084	840.286448117308	1487.032048835961	521.288224603069	922.836984628334	930.877672196978	663.660784916813	871.422918401337	958.157028743851	394.529812829505	932.756839846052	721.460148690469	625.737144415774	842.068693097950	615.232738809526	685.817182948462	905.209247823425	560.221177006801	598.309238398246	893.042093915557	468.341409079072	601.140597480918	953.692254570033	772.888501324735	422.546850624771	904.190251446860	644.746225925874	345.662677743946	1004.373071572315	584.207934026845	410.141493182403	1030.421148139588	518.827175615164	405.313339443443	1011.101179058707	446.635714719285	391.338561528820	942.322067991655	321.393526572717	331.520123859260	1023.743443171409	216.329473871826	385.261579764007	845.968047753383	385.160126087951	604.236703411172	756.500170870160	292.703227380908	660.980044870259	778.659501667210	196.116236706366	592.628101681452	620.277584577617	44.573893876420	551.163085639224	789.274601243773	94.001275634498	596.408380389079	697.763429616887	37.098253694551	631.111852147524	906.233460032305	40.566772937294	636.419578691367	931.148080864432	39.861843098445	413.307397585725	1008.606177559471	43.731652552105	336.472676001899	1081.705523068407	117.892849657524	362.669111331703	1214.909394852843	84.336127335796	340.785096012491	659.142834656144	1108.119176362951	287.771071754127	621.231189815611	851.020997969930	318.495549240587	1085.943952105736	1151.978695098083	809.945693704398	1327.695340928426	1183.687579508990	730.380440604782	
22	57.150000000000	682.455331242840	999.185424054836	582.835084265776	821.326614127340	1421.649001490299	364.197239367986	956.313355980707	1354.497797941607	500.590462399056	913.660483856942	1436.673083180500	684.520313247198	840.906310950569	1486.236272662615	517.971712294661	924.100252513763	930.049820174374	661.049502306354	870.920879139292	956.986939757936	392.171809313315	931.479034375353	720.179983323344	623.547515516758	839.698601782272	614.930674952514	684.335984221931	901.574685944335	559.100932564770	596.775400768160	888.117570647820	467.544301932779	599.772025164864	952.127375018495	770.269232721693	418.921257711019	899.316347548551	642.299851223620	343.470199284481	1000.081460954576	581.496121722824	406.579948107187	1025.137373448092	516.599475126736	402.530627489703	1006.968664723358	444.680797744011	388.911509734013	939.502546604139	318.353206181551	330.175950389714	1022.614007048852	214.673261133914	384.017829320884	840.959589172095	384.662296063228	603.293908134109	751.214181677137	292.666787304691	660.441436968823	772.990586226514	195.893242189630	592.303542469598	614.178976944074	44.446119252479	551.157681411244	783.327274064253	94.102270120109	596.515182530991	691.678473290302	37.005027800260	631.118972955151	900.165907936988	40.601135442865	636.395614410570	931.740583359691	38.765824087815	413.307640342374	1008.760515875298	42.294315424369	336.002639430297	1082.126995025947	116.008398810387	361.815145356557	1215.075034134400	81.856796851703	339.368066460371	656.320144607725	1108.645064289419	286.970678032576	617.735448158762	851.468558636427	319.430787270559	1095.088372169767	1156.724522903362	803.860823862239	1334.007148856766	1198.890591969288	721.250734049744	
23	57.170000000000	683.476645952313	998.392338733362	581.224517324072	821.084237202150	1420.320859847989	360.780443188207	957.051814660162	1353.210292727383	496.339380532742	915.579102315452	1435.878272826536	680.241019267018	841.589045663642	1485.104806649012	514.299309857731	925.610229357728	928.967451090297	658.301049479355	870.681513491195	955.461569824333	389.677590274148	930.858742726170	718.729238786364	621.209944784850	838.104338360746	614.331133006074	682.616293092130	898.814974968392	557.771895809350	595.027399731078	884.114072308975	466.439149098008	598.163715636675	951.203881107435	767.622586599820	415.286320764673	895.289574645267	639.713117596788	341.461461594919	996.818663292547	578.902787712834	403.104517879889	1020.743390935329	514.108173927302	399.828406491013	1003.370274633308	442.314967797277	386.546695446955	936.280589996813	315.413124747606	329.053710082711	1020.364963226207	212.609255972544	382.918503166789	836.650295254705	383.885274364960	602.136286127412	746.462493921504	292.546919000147	659.783233932609	767.588628526223	195.543545149193	591.890758868137	608.103522166421	44.372353665853	551.152270278818	777.423041140885	94.235314372788	596.637352365269	685.617172890877	36.935117940689	631.123638124283	894.117317691122	40.611245474664	636.374051051330	929.972407081621	37.967218552554	413.623886284903	1006.344695599231	40.869858950291	335.626587258805	1080.536698393293	113.554385581395	361.041295033765	1212.926692403177	77.993328107658	337.559807327462	654.908514573663	1108.006423232516	285.832414223369	615.926276922464	850.748175600801	319.889191030174	1103.249334209398	1160.723380636809	797.685449873590	1339.307543088569	1212.069308362037	712.539502199930	
24	57.190000000000	684.661315255426	997.333477159729	579.347122938719	821.030036212469	1418.717145438074	357.058476029716	957.887958795015	1351.762808183406	491.901785710271	917.415037632221	1434.873039955822	675.759540077395	842.344222718273	1483.776381842553	510.304896843821	927.348180406434	927.743051613498	655.367128981772	870.681483393148	953.765242722646	387.010380598475	930.800354820374	717.179150100402	618.702053998143	837.169643426704	613.532343962247	680.661180417758	896.796745084539	556.309146244346	593.059965290313	880.901887130908	465.116249202759	596.327282151428	950.940879561897	765.204743094569	411.737368071960	892.337918157903	637.238904561803	339.605172309853	994.727912197006	576.641697988985	399.782742222084	1017.433893772978	511.606373225805	397.259569089020	1000.544562137318	439.778268230935	384.298990757533	933.069682706214	312.731232268430	328.045603265129	1017.407624039594	210.315961558320	381.975102953061	832.930912821878	382.924661131186	600.780772682764	742.170034224141	292.417414574469	659.021518341327	762.416594214360	195.138313160940	591.405893441031	602.056355461683	44.408143001766	551.161965853787	771.568281547039	94.402419406617	596.773999969376	679.588632254290	36.916022125660	631.133157636110	888.095194431790	40.583673903540	636.358025974126	926.348978159020	37.449435498957	414.119811310187	1001.989604902756	39.515622729285	335.330336539510	1077.414765068954	110.747832560126	360.410232259465	1209.048754040134	73.177730383569	335.658452473556	654.776364251911	1106.384063435191	284.345723749038	615.663767981546	849.050653037415	319.767874431581	1110.455313638979	1164.036964159378	791.517159616619	1343.764205402119	1223.255407323498	704.256241785721	
